<?xml version="1.0" encoding="UTF-8" standalone="no"?>
<!-- Generator: Adobe Illustrator 19.0.0, SVG Export Plug-In . SVG Version: 6.00 Build 0)  -->

<svg
   xmlns:dc="http://purl.org/dc/elements/1.1/"
   xmlns:cc="http://creativecommons.org/ns#"
   xmlns:rdf="http://www.w3.org/1999/02/22-rdf-syntax-ns#"
   xmlns:svg="http://www.w3.org/2000/svg"
   xmlns="http://www.w3.org/2000/svg"
   xmlns:sodipodi="http://sodipodi.sourceforge.net/DTD/sodipodi-0.dtd"
   xmlns:inkscape="http://www.inkscape.org/namespaces/inkscape"
   version="1.1"
   id="Layer_1"
   x="0px"
   y="0px"
   viewBox="0 0 309.268 336.99862"
   xml:space="preserve"
   sodipodi:docname="documents.svg"
   width="309.26801"
   height="336.99863"
   inkscape:version="0.92.2 (5c3e80d, 2017-08-06)"><metadata
     id="metadata49"><rdf:RDF><cc:Work
         rdf:about=""><dc:format>image/svg+xml</dc:format><dc:type
           rdf:resource="http://purl.org/dc/dcmitype/StillImage" /></cc:Work></rdf:RDF></metadata><defs
     id="defs47" /><sodipodi:namedview
     pagecolor="#ffffff"
     bordercolor="#666666"
     borderopacity="1"
     objecttolerance="10"
     gridtolerance="10"
     guidetolerance="10"
     inkscape:pageopacity="0"
     inkscape:pageshadow="2"
     inkscape:window-width="1366"
     inkscape:window-height="705"
     id="namedview45"
     showgrid="false"
     inkscape:zoom="0.76309219"
     inkscape:cx="154.634"
     inkscape:cy="196.86164"
     inkscape:window-x="-8"
     inkscape:window-y="-8"
     inkscape:window-maximized="1"
     inkscape:current-layer="Layer_1" /><g
     id="g12"
     transform="translate(0,-14.497)"><path
       style="fill:#e3b451"
       d="M 57.988,101.478 H 251.28 l 57.988,57.988 H 0 Z"
       id="path2"
       inkscape:connector-curvature="0" /><path
       style="fill:#d07c40"
       d="m 67.652,120.807 h 173.963 l 48.323,48.323 c 0,0 -3.962,48.323 -10.95,48.323 H 28.453 c -5.837,0 -9.123,-48.323 -9.123,-48.323 z"
       id="path4"
       inkscape:connector-curvature="0" /><path
       style="fill:#e4e7e7"
       d="M 57.988,14.497 H 251.28 c 5.345,0 9.665,4.33 9.665,9.665 V 188.46 c 0,5.335 -4.32,9.665 -9.665,9.665 H 57.988 c -5.345,0 -9.665,-4.33 -9.665,-9.665 V 24.161 c 0,-5.334 4.32,-9.664 9.665,-9.664 z"
       id="path6"
       inkscape:connector-curvature="0" /><path
       style="fill:#ccd0d2"
       d="m 86.981,62.82 h 135.304 c 5.345,0 9.665,-4.33 9.665,-9.665 0,-5.335 -4.32,-9.665 -9.665,-9.665 H 86.981 c -5.345,0 -9.665,4.33 -9.665,9.665 0,5.335 4.321,9.665 9.665,9.665 z M 222.286,82.149 H 86.981 c -5.345,0 -9.665,4.33 -9.665,9.665 0,5.335 4.32,9.665 9.665,9.665 h 135.304 c 5.345,0 9.665,-4.32 9.665,-9.665 0,-5.345 -4.32,-9.665 -9.664,-9.665 z m 0,38.658 H 86.981 c -5.345,0 -9.665,4.33 -9.665,9.665 0,5.335 4.32,9.665 9.665,9.665 h 135.304 c 5.345,0 9.665,-4.33 9.665,-9.665 0,-5.335 -4.32,-9.665 -9.664,-9.665 z"
       id="path8"
       inkscape:connector-curvature="0" /><path
       style="fill:#f4b459"
       d="m 212.621,159.466 v 19.329 c 0,10.679 -8.659,19.329 -19.329,19.329 h -77.317 c -10.67,0 -19.329,-8.659 -19.329,-19.329 V 159.466 H 0 v 115.975 c 0,10.67 8.659,19.329 19.329,19.329 h 270.609 c 10.67,0 19.329,-8.659 19.329,-19.329 V 159.466 Z"
       id="path10"
       inkscape:connector-curvature="0" /></g><g
     id="g14"
     transform="translate(0,-14.497)" /><g
     id="g16"
     transform="translate(0,-14.497)" /><g
     id="g18"
     transform="translate(0,-14.497)" /><g
     id="g20"
     transform="translate(0,-14.497)" /><g
     id="g22"
     transform="translate(0,-14.497)" /><g
     id="g24"
     transform="translate(0,-14.497)" /><g
     id="g26"
     transform="translate(0,-14.497)" /><g
     id="g28"
     transform="translate(0,-14.497)" /><g
     id="g30"
     transform="translate(0,-14.497)" /><g
     id="g32"
     transform="translate(0,-14.497)" /><g
     id="g34"
     transform="translate(0,-14.497)" /><g
     id="g36"
     transform="translate(0,-14.497)" /><g
     id="g38"
     transform="translate(0,-14.497)" /><g
     id="g40"
     transform="translate(0,-14.497)" /><g
     id="g42"
     transform="translate(0,-14.497)" /><text
     xml:space="preserve"
     style="font-style:normal;font-weight:normal;font-size:29.03818703px;line-height:1.25;font-family:sans-serif;letter-spacing:0.03629773px;word-spacing:0px;fill:#1a1a1a;fill-opacity:1;stroke:none;stroke-width:0.72595465"
     x="49.283447"
     y="336.78595"
     id="text858"><tspan
       sodipodi:role="line"
       id="tspan856"
       x="49.283447"
       y="336.78595"
       style="font-style:normal;font-variant:normal;font-weight:normal;font-stretch:normal;font-family:Bahnschrift;-inkscape-font-specification:Bahnschrift;fill:#1a1a1a;stroke-width:0.72595465">No Data Available</tspan></text>
</svg>